<?xml version="1.0" encoding="UTF-8"?>
<svg width="150px" height="31px" viewBox="0 0 150 31" version="1.1" xmlns="http://www.w3.org/2000/svg" xmlns:xlink="http://www.w3.org/1999/xlink">
    <!-- Generator: Sketch 48.2 (47327) - http://www.bohemiancoding.com/sketch -->
    <title>Brand logo</title>
    <desc>Created with Sketch.</desc>
    <defs></defs>
    <g id="Artboard" stroke="none" stroke-width="1" fill="none" fill-rule="evenodd" transform="translate(-8.000000, -8.000000)">
        <g id="Brand-logo" transform="translate(8.000000, 8.000000)">
            <path d="M138.546678,0.231971005 L138.546678,3.08077874 L142.609911,3.08077874 L142.609911,16.3741242 L145.782874,16.3741242 L145.782874,3.08077874 L149.845673,3.08077874 L149.845673,0.231971005 L138.546678,0.231971005 Z M114.244907,9.66131426 C115.309066,5.94407589 115.953893,3.61408302 116.179387,2.67227046 C116.233593,2.9372867 116.324224,3.2981201 116.450414,3.75383585 C116.576604,4.21095381 117.141207,6.17964588 118.144222,9.66131426 L114.244907,9.66131426 Z M114.224526,0.165600095 L108.943625,16.3741242 L112.361597,16.3741242 L113.446571,12.5316224 L118.901796,12.5316224 L119.986337,16.3741242 L123.404742,16.3741242 L118.103026,0.165600095 L114.224526,0.165600095 Z M107.290145,0.231971005 L103.7694,0.231971005 L99.7161417,5.71925612 L98.4676843,7.61877287 L98.4676843,0.231971005 L95.2951542,0.231971005 L95.2951542,16.3741242 L98.4676843,16.3741242 L98.4676843,10.6106052 L99.8085076,9.57250812 L103.728204,16.3741242 L107.330908,16.3741242 L102.070388,7.37572447 L107.290145,0.231971005 Z M85.7970779,10.1576939 L88.632234,10.1576939 L88.632234,13.5253165 C87.9496803,13.6730151 87.2775341,13.746397 86.616229,13.746397 C85.3469568,13.746397 84.3799335,13.2846051 83.7147256,12.3605537 C83.0495177,11.4369698 82.7164801,10.0988014 82.7164801,8.34698328 C82.7164801,6.66854709 83.1293079,5.33318308 83.9549637,4.33902162 C84.781053,3.34579498 85.87947,2.84894795 87.2506483,2.84894795 C88.4310237,2.84894795 89.566734,3.14341044 90.6586464,3.73186802 L91.7128318,0.99383427 C90.2865809,0.33105997 88.8065583,0.000140220233 87.2710295,0.000140220233 C84.8213818,0.000140220233 82.9055483,0.72881803 81.5239626,2.18664105 C80.1423769,3.64399667 79.4520177,5.67532044 79.4520177,8.28107977 C79.4520177,10.960221 80.0469755,13.016317 81.2377584,14.4474982 C82.4281077,15.8796142 84.1527047,16.5952048 86.411116,16.5952048 C87.2979153,16.5952048 88.1665017,16.5264969 89.0160078,16.3904832 C89.8650802,16.2544696 90.7713935,16.01703 91.7336466,15.6786319 L91.7336466,7.30935356 L85.7970779,7.30935356 L85.7970779,10.1576939 Z M73.4950678,7.87257149 C73.4950678,8.74100213 73.5462376,10.2245322 73.6485773,12.3217595 L73.5770263,12.3217595 L67.0775893,0.231971005 L63.0759344,0.231971005 L63.0759344,16.3741242 L65.9110904,16.3741242 L65.9110904,8.77745939 C65.9110904,7.85761467 65.8464776,6.31939871 65.7168185,4.16234413 L65.8091844,4.16234413 L72.3181615,16.3741242 L76.3506051,16.3741242 L76.3506051,0.231971005 L73.4950678,0.231971005 L73.4950678,7.87257149 Z M56.1372173,16.3741242 L59.3097474,16.3741242 L59.3097474,0.231971005 L56.1372173,0.231971005 L56.1372173,16.3741242 Z M45.1556493,13.5472843 L43.7940112,13.5472843 L43.7940112,3.03637566 L45.4830495,3.03637566 C48.3212411,3.03637566 49.74012,4.76996514 49.74012,8.2371441 C49.74012,11.7772376 48.2119631,13.5472843 45.1556493,13.5472843 L45.1556493,13.5472843 Z M45.3191326,0.231971005 L40.6214811,0.231971005 L40.6214811,16.3741242 L44.858604,16.3741242 C47.5055591,16.3741242 49.5306706,15.6674142 50.9326375,14.2544617 C52.335038,12.8410417 53.0362383,10.8059788 53.0362383,8.14833795 C53.0362383,5.65335261 52.3606229,3.70990018 51.0093922,2.31891547 C49.6585952,0.92746336 47.761842,0.231971005 45.3191326,0.231971005 L45.3191326,0.231971005 Z M33.9997569,7.87257149 C33.9997569,8.74100213 34.0509267,10.2245322 34.1528327,12.3217595 L34.0817153,12.3217595 L27.582712,0.231971005 L23.5806234,0.231971005 L23.5806234,16.3741242 L26.4157795,16.3741242 L26.4157795,8.77745939 C26.4157795,7.85761467 26.3507331,6.31939871 26.2215075,4.16234413 L26.3134398,4.16234413 L32.8224169,16.3741242 L36.8548605,16.3741242 L36.8548605,0.231971005 L33.9997569,0.231971005 L33.9997569,7.87257149 Z M11.8414815,16.3741242 L20.4592632,16.3741242 L20.4592632,13.5472843 L15.0140116,13.5472843 L15.0140116,9.3850804 L20.0802594,9.3850804 L20.0802594,6.58067575 L15.0140116,6.58067575 L15.0140116,3.03637566 L20.4592632,3.03637566 L20.4592632,0.231971005 L11.8414815,0.231971005 L11.8414815,16.3741242 Z M3.17296373,0.231971005 L0,0.231971005 L0,16.3741242 L9.24179348,16.3741242 L9.24179348,13.5472843 L3.17296373,13.5472843 L3.17296373,0.231971005 Z" id="Fill-1" fill="#294E9B"></path>
            <path d="M126.478402,0.0018696031 L125.322744,1.50082389 L128.327454,1.50082389 C128.626668,1.51437851 130.587166,1.73078507 131.331297,3.24890279 L126.478402,3.24890279 L125.324045,4.73056326 L131.617935,4.73056326 C131.616201,4.7595421 131.614032,4.78478175 131.61143,4.81376059 C131.61143,4.81376059 131.690787,8.07388101 126.016139,7.49477145 L126.016139,9.24285035 L132.024692,16.2361008 L134.335574,16.2361008 L134.335574,15.7369167 L128.558152,8.74366632 C128.558152,8.74366632 133.113135,8.79695001 133.878081,4.7558029 C133.878081,4.7558029 133.877647,4.74785708 133.881116,4.73056326 L135.821234,4.73056326 L136.877588,3.24890279 L133.873744,3.24890279 C133.758396,2.68942407 133.410614,2.00141012 132.949218,1.50082389 L135.953495,1.50082389 L136.875419,0 L126.478402,0.0018696031 Z" id="Fill-1" fill="#FE7A3F"></path>
            <path d="M149.687393,27.4995405 C149.584186,27.3826903 149.436314,27.3237978 149.24421,27.3237978 C149.048638,27.3237978 148.898164,27.3803533 148.792355,27.4929969 C148.686546,27.6056405 148.633641,27.7701656 148.633641,27.9865721 C148.633641,28.2029787 148.68698,28.3698408 148.794089,28.4866909 C148.901633,28.6035411 149.051239,28.6624336 149.24421,28.6624336 C149.433712,28.6624336 149.580717,28.6016715 149.685225,28.4806147 C149.789299,28.3590905 149.84177,28.1940981 149.84177,27.9865721 C149.84177,27.7790462 149.790167,27.6168581 149.687393,27.4995405 L149.687393,27.4995405 Z M149.601966,26.5867068 L149.809247,22.1197576 L148.682643,22.1197576 L148.894261,26.5867068 L149.601966,26.5867068 Z M146.433338,27.341559 C146.254678,27.6341519 145.999696,27.7804484 145.668393,27.7804484 C145.275512,27.7804484 144.992344,27.6477066 144.818453,27.3831577 C144.644996,27.1186089 144.558267,26.6909372 144.558267,26.0996752 L144.558267,25.9463677 C144.558267,25.4196071 144.645863,25.035871 144.820621,24.7965618 C144.995813,24.5563178 145.27291,24.4366632 145.652348,24.4366632 C145.99666,24.4366632 146.258147,24.5764161 146.435507,24.8559217 C146.612866,25.13496 146.701763,25.5467401 146.701763,26.0907946 C146.701763,26.6325121 146.612433,27.0489662 146.433338,27.341559 L146.433338,27.341559 Z M145.900825,23.594407 C145.304133,23.594407 144.856613,23.8397924 144.558267,24.331498 L144.509699,24.331498 C144.441617,23.9888933 144.396952,23.7724867 144.37527,23.681811 L143.602519,23.681811 L143.602519,30.6942248 L144.558267,30.6942248 L144.558267,28.7063693 C144.558267,28.6189654 144.539187,28.3698408 144.50146,27.9599303 L144.558267,27.9599303 C144.872658,28.4020914 145.314974,28.6227046 145.884347,28.6227046 C146.44548,28.6227046 146.885628,28.4006892 147.203921,27.9561911 C147.523083,27.5112255 147.682229,26.8923869 147.682229,26.0996752 C147.682229,25.3069635 147.525684,24.6909292 147.212594,24.2525073 C146.899071,23.8131506 146.462392,23.594407 145.900825,23.594407 L145.900825,23.594407 Z M141.296407,26.0996752 C141.296407,26.708231 141.202306,27.1419789 141.013672,27.4009189 C140.825037,27.659859 140.530594,27.789329 140.129041,27.789329 C139.828093,27.789329 139.606935,27.6963162 139.466001,27.5102907 C139.325067,27.3247326 139.254383,27.0461618 139.254383,26.6745781 L139.254383,23.681811 L138.290829,23.681811 L138.290829,26.8545274 C138.290829,27.4485938 138.424391,27.8916898 138.692816,28.1842826 C138.961674,28.4768755 139.368431,28.6227046 139.91352,28.6227046 C140.228345,28.6227046 140.508044,28.5586707 140.753486,28.429668 C140.998928,28.3011328 141.187996,28.1239879 141.320691,27.8987008 L141.369692,27.8987008 L141.504122,28.5353006 L142.256492,28.5353006 L142.256492,23.681811 L141.296407,23.681811 L141.296407,26.0996752 Z M135.126538,27.7804484 C134.358557,27.7804484 133.975217,27.2200348 133.975217,26.0996752 C133.975217,25.5640339 134.065415,25.1531886 134.24581,24.8666719 C134.426205,24.5801553 134.71718,24.4366632 135.117865,24.4366632 C135.882811,24.4366632 136.265284,24.9910005 136.265284,26.0996752 C136.265284,27.2200348 135.885413,27.7804484 135.126538,27.7804484 L135.126538,27.7804484 Z M135.134344,23.594407 C134.453525,23.594407 133.926215,23.8150202 133.551982,24.2567139 C133.178182,24.6984077 132.990848,25.3125723 132.990848,26.0996752 C132.990848,26.6058702 133.077576,27.0503684 133.251467,27.433637 C133.424491,27.8169056 133.672534,28.1113681 133.995164,28.3156223 C134.318228,28.5208112 134.689426,28.6227046 135.11006,28.6227046 C135.78264,28.6227046 136.307347,28.4006892 136.684183,27.9561911 C137.061018,27.5112255 137.249653,26.8923869 137.249653,26.0996752 C137.249653,25.3331379 137.059718,24.7241147 136.68028,24.2721381 C136.300409,23.8201616 135.785242,23.594407 135.134344,23.594407 L135.134344,23.594407 Z M131.191231,23.8482056 C130.951426,24.0183395 130.756721,24.2478333 130.607548,24.5376218 L130.55898,24.5376218 L130.43279,23.681811 L129.684322,23.681811 L129.684322,28.5353006 L130.640071,28.5353006 L130.640071,25.9987166 C130.640071,25.5687079 130.758889,25.2190921 130.995658,24.9503367 C131.233294,24.6811138 131.542915,24.5465024 131.925388,24.5465024 C132.071959,24.5465024 132.212893,24.5637962 132.348623,24.5988513 L132.441856,23.6378753 C132.316967,23.6088964 132.158688,23.594407 131.96615,23.594407 C131.689486,23.594407 131.431035,23.6790066 131.191231,23.8482056 L131.191231,23.8482056 Z M126.18656,25.9547809 L127.418539,25.9547809 L127.418539,27.6089123 C127.060784,27.6939792 126.724711,27.7365127 126.409886,27.7365127 C125.786308,27.7365127 125.308434,27.5322586 124.976697,27.1242177 C124.644093,26.7161768 124.478008,26.1202408 124.478008,25.3359423 C124.478008,24.5899707 124.662306,24.0024479 125.031336,23.5724392 C125.399932,23.1424305 125.901657,22.9274261 126.536076,22.9274261 C127.019154,22.9274261 127.501798,23.0470807 127.984443,23.2868573 L128.32572,22.4137527 C127.770223,22.1562148 127.18177,22.0276796 126.560794,22.0276796 C125.595071,22.0276796 124.837064,22.3193377 124.286771,22.9031213 C123.736045,23.4864374 123.461116,24.2950408 123.461116,25.3275291 C123.461116,26.3749742 123.705257,27.1859146 124.193105,27.7608175 C124.681386,28.3352531 125.375648,28.6227046 126.275891,28.6227046 C126.658363,28.6227046 127.014384,28.5965301 127.343953,28.5437138 C127.673087,28.491365 128.016532,28.4020914 128.375155,28.2763606 L128.375155,25.0555018 L126.18656,25.0555018 L126.18656,25.9547809 Z M119.469435,27.6112493 C119.354519,27.4929969 119.296845,27.3093084 119.296845,27.0611186 L119.296845,24.4628377 L120.577825,24.4628377 L120.577825,23.681811 L119.296845,23.681811 L119.296845,22.6021152 L118.707091,22.6021152 L118.381425,23.6294621 L117.722288,24.0061871 L117.722288,24.4628377 L118.33676,24.4628377 L118.33676,27.0784124 C118.33676,28.1080963 118.789483,28.6227046 119.695362,28.6227046 C119.874457,28.6227046 120.047047,28.6058781 120.213999,28.5726927 C120.380518,28.5390398 120.516682,28.4974412 120.622924,28.4474293 L120.622924,27.6706092 C120.389191,27.7495999 120.155891,27.789329 119.923025,27.789329 C119.736125,27.789329 119.584783,27.7299691 119.469435,27.6112493 L119.469435,27.6112493 Z M116.179387,23.8482056 C115.939149,24.0183395 115.744877,24.2478333 115.595704,24.5376218 L115.546703,24.5376218 L115.420513,23.681811 L114.672045,23.681811 L114.672045,28.5353006 L115.628227,28.5353006 L115.628227,25.9987166 C115.628227,25.5687079 115.746612,25.2190921 115.983814,24.9503367 C116.221017,24.6811138 116.531072,24.5465024 116.913544,24.5465024 C117.060116,24.5465024 117.200616,24.5637962 117.336346,24.5988513 L117.430013,23.6378753 C117.305124,23.6088964 117.146411,23.594407 116.954307,23.594407 C116.677643,23.594407 116.419192,23.6790066 116.179387,23.8482056 L116.179387,23.8482056 Z M112.39889,26.6395231 C112.39889,27.0171829 112.293949,27.3102432 112.083632,27.5191713 C111.873315,27.7285669 111.594483,27.8332647 111.247569,27.8332647 C111.009065,27.8332647 110.829971,27.7739048 110.710719,27.655185 C110.591467,27.5369326 110.531625,27.3696031 110.531625,27.1531965 C110.531625,26.8545274 110.633964,26.6329795 110.838644,26.4880852 C111.043757,26.343191 111.371157,26.2623307 111.821278,26.2445694 L112.39889,26.218395 L112.39889,26.6395231 Z M111.621802,23.594407 C111.364219,23.594407 111.090156,23.6299295 110.800049,23.7014418 C110.509942,23.7729541 110.242819,23.8776519 109.999111,24.0155351 L110.307865,24.7526261 C110.503438,24.6530698 110.706383,24.567068 110.918434,24.4936861 C111.129618,24.4207716 111.350776,24.3838469 111.58104,24.3838469 C111.862908,24.3838469 112.07149,24.4605007 112.205485,24.6142755 C112.339915,24.767583 112.406696,24.9994138 112.406696,25.3097679 L112.406696,25.5687079 L111.630042,25.5953497 C110.924939,25.6187198 110.400231,25.7570704 110.055485,26.0118038 C109.711173,26.2665373 109.539016,26.6437297 109.539016,27.1438485 C109.539016,27.6149885 109.663038,27.9790937 109.911082,28.2366315 C110.159559,28.4941694 110.504739,28.6227046 110.946621,28.6227046 C111.290933,28.6227046 111.572801,28.5694209 111.792658,28.4628535 C112.012081,28.3558187 112.230637,28.1548364 112.447458,27.8594391 L112.479981,27.8594391 L112.671218,28.5353006 L113.354639,28.5353006 L113.354639,25.2662996 C113.354639,24.689527 113.208935,24.2669967 112.917527,23.9977739 C112.625685,23.7290184 112.193777,23.594407 111.621802,23.594407 L111.621802,23.594407 Z M109.035124,23.681811 L107.932804,23.681811 L106.574201,25.2443318 L106.033449,25.9725422 L106.008731,25.9725422 L106.057733,25.0377406 L106.057733,21.7070427 L105.10979,21.7070427 L105.10979,28.5353006 L106.057733,28.5353006 L106.057733,26.8718213 L106.58244,26.4067575 L108.026471,28.5353006 L109.149172,28.5353006 L107.225099,25.7664184 L109.035124,23.681811 Z M102.010979,26.2006337 C101.739952,26.2006337 101.53137,26.1188386 101.386533,25.9547809 C101.241263,25.7911907 101.168845,25.5570229 101.168845,25.252745 C101.168845,24.9279014 101.239962,24.6811138 101.382197,24.5109799 C101.524865,24.3413135 101.734315,24.2567139 102.010979,24.2567139 C102.289811,24.2567139 102.498393,24.3422483 102.634991,24.5133169 C102.772456,24.684853 102.840537,24.9279014 102.840537,25.2443318 C102.840537,25.8818664 102.563873,26.2006337 102.010979,26.2006337 L102.010979,26.2006337 Z M101.65279,28.5175394 L102.37654,28.5175394 C102.756411,28.5175394 103.016163,28.5619425 103.155796,28.6516834 C103.295862,28.7404896 103.365679,28.8909926 103.365679,29.101323 C103.365679,29.367274 103.237754,29.5808762 102.983206,29.7421294 C102.728224,29.9029153 102.340114,29.9828408 101.819742,29.9828408 C101.483236,29.9828408 101.222183,29.9234809 101.036584,29.8033589 C100.850985,29.6832369 100.758185,29.5121682 100.758185,29.2896855 C100.758185,29.0527133 100.838843,28.8648182 101.000158,28.7260001 C101.161473,28.5871821 101.379161,28.5175394 101.65279,28.5175394 L101.65279,28.5175394 Z M102.41947,23.6224511 C102.279837,23.603755 102.146275,23.594407 102.018784,23.594407 C101.449412,23.594407 101.010999,23.7388339 100.703113,24.0286223 C100.395226,24.3179434 100.241717,24.7259843 100.241717,25.252745 C100.241717,25.5808603 100.314135,25.8664422 100.459405,26.1104254 C100.604242,26.3553434 100.79331,26.5315535 101.026176,26.6395231 C100.839276,26.7624495 100.698342,26.8863107 100.603808,27.0125089 C100.508407,27.1387071 100.460706,27.2920146 100.460706,27.4728987 C100.460706,27.6168581 100.502336,27.7533391 100.585162,27.8832765 C100.667987,28.0141488 100.772929,28.1080963 100.90042,28.1665214 C100.586029,28.2455121 100.341021,28.3866672 100.166263,28.5899865 C99.9910712,28.7933059 99.903909,29.0443001 99.903909,29.3425018 C99.903909,29.7753149 100.06479,30.109039 100.387421,30.3432068 C100.710484,30.5769072 101.178385,30.6942248 101.791122,30.6942248 C102.585556,30.6942248 103.193089,30.545124 103.613289,30.2464549 C104.033922,29.9482532 104.243805,29.5238533 104.243805,28.9737226 C104.243805,28.5437138 104.115013,28.2146637 103.85743,27.9865721 C103.599846,27.7584805 103.22301,27.6444347 102.726923,27.6444347 L101.941596,27.6444347 C101.684012,27.6444347 101.507086,27.6168581 101.410817,27.5612374 C101.314549,27.5056167 101.266414,27.421952 101.266414,27.311178 C101.266414,27.1265547 101.369188,26.9657688 101.575602,26.8278856 C101.691818,26.851723 101.822344,26.863408 101.96588,26.863408 C102.527447,26.863408 102.968028,26.719916 103.288057,26.4333993 C103.607651,26.1464153 103.767666,25.7533312 103.767666,25.252745 C103.767666,25.0858829 103.745116,24.9279014 103.698716,24.7788006 C103.65275,24.6296997 103.594642,24.5039689 103.523958,24.4016082 L104.292807,24.2478333 L104.292807,23.681811 L102.735162,23.681811 C102.664045,23.6612453 102.559103,23.6416145 102.41947,23.6224511 L102.41947,23.6224511 Z M97.5613711,23.594407 C97.2573875,23.594407 96.9807235,23.6570387 96.7313789,23.7827695 C96.4820343,23.9085003 96.2890633,24.0870474 96.1537668,24.3179434 L96.1051988,24.3179434 L95.9707696,23.681811 L95.2223023,23.681811 L95.2223023,28.5353006 L96.1780508,28.5353006 L96.1780508,26.1174364 C96.1780508,25.511685 96.2717176,25.0802741 96.4590513,24.8227363 C96.6463849,24.5656658 96.941262,24.4366632 97.3458506,24.4366632 C97.6494005,24.4366632 97.870992,24.5292086 98.0106249,24.7128971 C98.1502579,24.8975204 98.2200743,25.1765586 98.2200743,25.5514141 L98.2200743,28.5353006 L99.1801593,28.5353006 L99.1801593,25.3709974 C99.1801593,24.1866038 98.6402741,23.594407 97.5613711,23.594407 L97.5613711,23.594407 Z M92.9161903,28.5353006 L93.8723725,28.5353006 L93.8723725,23.681811 L92.9161903,23.681811 L92.9161903,28.5353006 Z M93.4001356,21.8215559 C93.2271121,21.8215559 93.0931165,21.8711004 92.9994497,21.9706567 C92.9066502,22.0702131 92.8593831,22.2118355 92.8593831,22.3959914 C92.8593831,22.5717341 92.9066502,22.7100848 92.9994497,22.8110433 C93.0931165,22.9120019 93.2271121,22.9620138 93.4001356,22.9620138 C93.568389,22.9620138 93.6993491,22.9120019 93.7925822,22.8110433 C93.8862491,22.7100848 93.9335161,22.5717341 93.9335161,22.3959914 C93.9335161,22.2118355 93.8862491,22.0702131 93.7925822,21.9706567 C93.6993491,21.8711004 93.568389,21.8215559 93.4001356,21.8215559 L93.4001356,21.8215559 Z M90.6508408,26.2707439 C90.6456371,26.8063852 90.5537048,27.193393 90.3746104,27.4313 C90.1955159,27.6696744 89.9093118,27.789329 89.5159978,27.789329 C89.1638799,27.789329 88.8993579,27.6477066 88.7228653,27.3658639 C88.5468064,27.0830864 88.4587769,26.6727085 88.4587769,26.1347302 C88.4587769,25.5906757 88.5498419,25.1718846 88.7315381,24.8778896 C88.9132344,24.5838945 89.1716855,24.4366632 89.5081922,24.4366632 C89.9015062,24.4366632 90.1903122,24.5656658 90.3746104,24.8227363 C90.5584749,25.0802741 90.6508408,25.5144894 90.6508408,26.126317 L90.6508408,26.2707439 Z M90.6066092,23.4756872 C90.6066092,23.677137 90.6295923,23.952436 90.6755584,24.3006496 L90.6269904,24.3006496 C90.3178032,23.8295096 89.8676821,23.594407 89.2761934,23.594407 C88.7124579,23.594407 88.2710096,23.8154876 87.9522822,24.2585835 C87.6335548,24.7021469 87.4744079,25.3214529 87.4744079,26.1174364 C87.4744079,26.9101481 87.6313866,27.5261823 87.9462112,27.9646043 C88.2610358,28.403961 88.6985813,28.6227046 89.259715,28.6227046 C89.8512036,28.6227046 90.3000238,28.3815258 90.6066092,27.8987008 L90.6508408,27.8987008 L90.8177932,28.5353006 L91.5662606,28.5353006 L91.5662606,21.7070427 L90.6066092,21.7070427 L90.6066092,23.4756872 Z M84.8105407,23.594407 C84.5065572,23.594407 84.2303268,23.6570387 83.9809822,23.7827695 C83.7307704,23.9085003 83.5386667,24.0870474 83.4033701,24.3179434 L83.3539349,24.3179434 L83.2199393,23.681811 L82.471472,23.681811 L82.471472,28.5353006 L83.4272205,28.5353006 L83.4272205,26.1174364 C83.4272205,25.511685 83.5208873,25.0802741 83.708221,24.8227363 C83.895121,24.5656658 84.1908653,24.4366632 84.5950203,24.4366632 C84.8985702,24.4366632 85.1201616,24.5292086 85.2597946,24.7128971 C85.3994275,24.8975204 85.469244,25.1765586 85.469244,25.5514141 L85.469244,28.5353006 L86.429329,28.5353006 L86.429329,25.3709974 C86.429329,24.1866038 85.8898775,23.594407 84.8105407,23.594407 L84.8105407,23.594407 Z M78.4203817,25.5953497 C78.4555068,25.1971243 78.5647848,24.894716 78.747782,24.6867226 C78.9312128,24.4791967 79.1744864,24.3749663 79.4780363,24.3749663 C79.7820199,24.3749663 80.0205233,24.4782619 80.1939804,24.684853 C80.3678712,24.8909768 80.4572016,25.1943199 80.4624053,25.5953497 L78.4203817,25.5953497 Z M79.4780363,23.594407 C78.8379797,23.594407 78.3349541,23.8210964 77.9689597,24.2744751 C77.6029652,24.7273865 77.419968,25.3508991 77.419968,26.1436109 C77.419968,26.9157569 77.6172754,27.5224431 78.0118903,27.9622673 C78.4065052,28.4030262 78.9533286,28.6227046 79.653228,28.6227046 C79.9593797,28.6227046 80.232141,28.5983997 80.4706445,28.5483878 C80.7095816,28.4988434 80.9454832,28.4137764 81.178783,28.2936544 L81.178783,27.4556048 C80.9151283,27.581803 80.6692528,27.671544 80.4402895,27.7252951 C80.2108925,27.779981 79.9637161,27.8066228 79.6978932,27.8066228 C79.2937382,27.8066228 78.9802145,27.6804246 78.7581894,27.4270934 C78.5357307,27.1742296 78.4177799,26.811994 78.404337,26.340854 L81.402109,26.340854 L81.402109,25.7837123 C81.402109,25.1022419 81.2299529,24.567068 80.8856406,24.1777232 C80.5413282,23.7888457 80.0721268,23.594407 79.4780363,23.594407 L79.4780363,23.594407 Z M74.2639163,22.1197576 L73.2916894,22.1197576 L73.2916894,28.5353006 L76.7816459,28.5353006 L76.7816459,27.6355541 L74.2639163,27.6355541 L74.2639163,22.1197576 Z M70.221499,23.681811 L69.1191792,23.681811 L67.7601429,25.2443318 L67.2193905,25.9725422 L67.1951065,25.9725422 L67.2441081,25.0377406 L67.2441081,21.7070427 L66.2961651,21.7070427 L66.2961651,28.5353006 L67.2441081,28.5353006 L67.2441081,26.8718213 L67.7688158,26.4067575 L69.212846,28.5353006 L70.335547,28.5353006 L68.4110406,25.7664184 L70.221499,23.681811 Z M63.3638731,23.594407 C63.0598896,23.594407 62.7836592,23.6570387 62.5343146,23.7827695 C62.2845364,23.9085003 62.091999,24.0870474 61.9562689,24.3179434 L61.9077009,24.3179434 L61.7737053,23.681811 L61.0248043,23.681811 L61.0248043,28.5353006 L61.9805529,28.5353006 L61.9805529,26.1174364 C61.9805529,25.511685 62.0742197,25.0802741 62.2615533,24.8227363 C62.4484534,24.5656658 62.7441977,24.4366632 63.1483527,24.4366632 C63.4519026,24.4366632 63.673494,24.5292086 63.8135606,24.7128971 C63.9527599,24.8975204 64.0225764,25.1765586 64.0225764,25.5514141 L64.0225764,28.5353006 L64.9826614,28.5353006 L64.9826614,25.3709974 C64.9826614,24.1866038 64.4432098,23.594407 63.3638731,23.594407 L63.3638731,23.594407 Z M58.719126,28.5353006 L59.6748746,28.5353006 L59.6748746,23.681811 L58.719126,23.681811 L58.719126,28.5353006 Z M59.2030713,21.8215559 C59.0291806,21.8215559 58.8960523,21.8711004 58.8023854,21.9706567 C58.7087186,22.0702131 58.6618852,22.2118355 58.6618852,22.3959914 C58.6618852,22.5717341 58.7087186,22.7100848 58.8023854,22.8110433 C58.8960523,22.9120019 59.0291806,22.9620138 59.2030713,22.9620138 C59.3713247,22.9620138 59.5018511,22.9120019 59.595518,22.8110433 C59.6891848,22.7100848 59.7355845,22.5717341 59.7355845,22.3959914 C59.7355845,22.2118355 59.6891848,22.0702131 59.595518,21.9706567 C59.5018511,21.8711004 59.3713247,21.8215559 59.2030713,21.8215559 L59.2030713,21.8215559 Z M55.7703556,23.594407 C55.4611683,23.594407 55.1905753,23.6584409 54.9590101,23.7874435 C54.7270112,23.9159788 54.5461822,24.0973303 54.4156558,24.331498 L54.3549458,24.331498 C54.3870353,24.0155351 54.4035138,23.7182682 54.4035138,23.4401648 L54.4035138,21.7070427 L53.4477652,21.7070427 L53.4477652,28.5353006 L54.4035138,28.5353006 L54.4035138,26.126317 C54.4035138,25.5177612 54.4976142,25.0840133 54.6862488,24.8246059 C54.8744497,24.5661332 55.1697604,24.4366632 55.5708799,24.4366632 C55.8748635,24.4366632 56.0964549,24.5292086 56.2360879,24.7128971 C56.3757208,24.8975204 56.4455373,25.1765586 56.4455373,25.5514141 L56.4455373,28.5353006 L57.4051886,28.5353006 L57.4051886,25.3709974 C57.4051886,24.1866038 56.8605334,23.594407 55.7703556,23.594407 L55.7703556,23.594407 Z M48.1846436,23.0190367 L49.9335247,23.0190367 L49.9335247,28.5353006 L50.9057516,28.5353006 L50.9057516,23.0190367 L52.6550663,23.0190367 L52.6550663,22.1197576 L48.1846436,22.1197576 L48.1846436,23.0190367 Z M44.3863671,27.4906599 C44.2940012,28.1697932 44.1543683,28.9040798 43.9674682,29.6935197 L44.6708367,29.6935197 C45.0181845,28.8363067 45.256688,28.135673 45.3867808,27.5916185 L45.3256372,27.4906599 L44.3863671,27.4906599 Z M41.4458359,23.594407 C41.1366486,23.594407 40.8660556,23.6584409 40.6344904,23.7874435 C40.4020579,23.9159788 40.2212289,24.0973303 40.091136,24.331498 L40.0299924,24.331498 C40.0625156,24.0155351 40.078994,23.7182682 40.078994,23.4401648 L40.078994,21.7070427 L39.1232455,21.7070427 L39.1232455,28.5353006 L40.078994,28.5353006 L40.078994,26.126317 C40.078994,25.5177612 40.1730945,25.0840133 40.3617291,24.8246059 C40.54993,24.5661332 40.8448071,24.4366632 41.2463602,24.4366632 C41.5499101,24.4366632 41.7719352,24.5292086 41.9115681,24.7128971 C42.0512011,24.8975204 42.1210176,25.1765586 42.1210176,25.5514141 L42.1210176,28.5353006 L43.0811025,28.5353006 L43.0811025,25.3709974 C43.0811025,24.1866038 42.53558,23.594407 41.4458359,23.594407 L41.4458359,23.594407 Z M37.6102661,26.1043492 C37.4420127,25.9753466 37.1722869,25.8337241 36.8010888,25.6785471 C36.3587732,25.4943912 36.0721354,25.3490295 35.940308,25.2443318 C35.8089143,25.1386992 35.7434342,25.010164 35.7434342,24.8582587 C35.7434342,24.5479046 35.9953806,24.3927275 36.4997071,24.3927275 C36.8305765,24.3927275 37.2386343,24.5011645 37.7243141,24.7175711 L38.0335014,23.940751 C37.5616981,23.709855 37.0612744,23.594407 36.5326639,23.594407 C35.9979825,23.594407 35.5760481,23.7089202 35.2655599,23.938414 C34.9546381,24.1683752 34.799394,24.4908817 34.799394,24.9059336 C34.799394,25.2513428 34.8908926,25.5322506 35.0743235,25.7486572 C35.2573207,25.9655312 35.607704,26.1819377 36.1254734,26.3983443 C36.3912964,26.5095857 36.5985776,26.6086746 36.7481844,26.696546 C36.8969238,26.7844173 37.0040336,26.8690169 37.06908,26.950812 C37.13456,27.0330745 37.1666496,27.1354353 37.1666496,27.2578943 C37.1666496,27.6416303 36.8726398,27.8332647 36.2841867,27.8332647 C35.8288618,27.8332647 35.3366773,27.7014576 34.8076332,27.4378436 L34.8076332,28.3287095 C35.1710258,28.5250178 35.6523692,28.6227046 36.2516635,28.6227046 C36.8483558,28.6227046 37.3067162,28.4965064 37.6267445,28.2436425 C37.9463392,27.9903113 38.1063533,27.6266735 38.1063533,27.1531965 C38.1063533,26.9190287 38.0660246,26.717579 37.9844997,26.5497821 C37.9034086,26.3810504 37.7785195,26.2328844 37.6102661,26.1043492 L37.6102661,26.1043492 Z M32.8111422,26.6395231 C32.8111422,27.0171829 32.705767,27.3102432 32.4954503,27.5191713 C32.2855672,27.7285669 32.006735,27.8332647 31.6598208,27.8332647 C31.4208836,27.8332647 31.2422228,27.7739048 31.1229711,27.655185 C31.0037194,27.5369326 30.9438767,27.3696031 30.9438767,27.1531965 C30.9438767,26.8545274 31.0462163,26.6329795 31.2508957,26.4880852 C31.4560087,26.343191 31.7829753,26.2623307 32.2335301,26.2445694 L32.8111422,26.218395 L32.8111422,26.6395231 Z M32.0340544,23.594407 C31.7764707,23.594407 31.5024085,23.6299295 31.2123015,23.7014418 C30.9221945,23.7729541 30.6550706,23.8776519 30.4109298,24.0155351 L30.720117,24.7526261 C30.9152562,24.6530698 31.1186347,24.567068 31.3302523,24.4936861 C31.54187,24.4207716 31.7630277,24.3838469 31.993292,24.3838469 C32.2751598,24.3838469 32.4833083,24.4605007 32.6177375,24.6142755 C32.7517331,24.767583 32.8189478,24.9994138 32.8189478,25.3097679 L32.8189478,25.5687079 L32.0422937,25.5953497 C31.3371906,25.6187198 30.8124829,25.7570704 30.4681706,26.0118038 C30.1234247,26.2665373 29.9512685,26.6437297 29.9512685,27.1438485 C29.9512685,27.6149885 30.0752903,27.9790937 30.3237676,28.2366315 C30.5718112,28.4941694 30.9165572,28.6227046 31.3588727,28.6227046 C31.7031851,28.6227046 31.9850528,28.5694209 32.2049097,28.4628535 C32.4243329,28.3558187 32.6428888,28.1548364 32.8597102,27.8594391 L32.8922334,27.8594391 L33.0834698,28.5353006 L33.7668907,28.5353006 L33.7668907,25.2662996 C33.7668907,24.689527 33.6211868,24.2669967 33.3293452,23.9977739 C33.0379373,23.7290184 32.6060292,23.594407 32.0340544,23.594407 L32.0340544,23.594407 Z M27.637351,22.9274261 C27.8840937,22.9274261 28.119128,22.965753 28.3428877,23.0433415 C28.5666473,23.12093 28.7791322,23.210671 28.9794752,23.3134992 L29.3294248,22.4399271 C28.8142573,22.1650954 28.25269,22.0276796 27.6451566,22.0276796 C27.0679781,22.0276796 26.5649526,22.1604214 26.1360799,22.4268399 C25.7080746,22.6932583 25.3802407,23.0760596 25.1538792,23.5761784 C24.9275177,24.0767646 24.8143369,24.6605482 24.8143369,25.3275291 C24.8143369,26.3861919 25.0476367,27.200404 25.5138026,27.7692308 C25.9804022,28.3385249 26.6490792,28.6227046 27.5194002,28.6227046 C28.1104552,28.6227046 28.6390656,28.5278222 29.1056652,28.3375901 L29.1056652,27.4378436 C28.8506833,27.5229105 28.6052415,27.5925533 28.3693399,27.6463043 C28.1334382,27.7009902 27.8892974,27.7276321 27.637351,27.7276321 C27.0541015,27.7276321 26.6087505,27.5261823 26.3008641,27.1218807 C25.9934115,26.7185138 25.8394683,26.1235126 25.8394683,25.3359423 C25.8394683,24.5843619 25.9994825,23.9949695 26.3195108,23.5677652 C26.6395391,23.1405609 27.0788192,22.9274261 27.637351,22.9274261 L27.637351,22.9274261 Z M22.0368554,23.681811 L20.9345356,23.681811 L19.575933,25.2443318 L19.0347469,25.9725422 L19.0104629,25.9725422 L19.0594645,25.0377406 L19.0594645,21.7070427 L18.1119552,21.7070427 L18.1119552,28.5353006 L19.0594645,28.5353006 L19.0594645,26.8718213 L19.5841722,26.4067575 L21.0282024,28.5353006 L22.1509034,28.5353006 L20.2268307,25.7664184 L22.0368554,23.681811 Z M15.1792295,23.594407 C14.8756796,23.594407 14.5990156,23.6570387 14.349671,23.7827695 C14.0998928,23.9085003 13.9073554,24.0870474 13.7720589,24.3179434 L13.7230573,24.3179434 L13.588628,23.681811 L12.8405944,23.681811 L12.8405944,28.5353006 L13.7963429,28.5353006 L13.7963429,26.1174364 C13.7963429,25.511685 13.8900097,25.0802741 14.0769097,24.8227363 C14.2642434,24.5656658 14.5595541,24.4366632 14.9637091,24.4366632 C15.267259,24.4366632 15.489284,24.5292086 15.628917,24.7128971 C15.7685499,24.8975204 15.8383664,25.1765586 15.8383664,25.5514141 L15.8383664,28.5353006 L16.7984514,28.5353006 L16.7984514,25.3709974 C16.7984514,24.1866038 16.2585662,23.594407 15.1792295,23.594407 L15.1792295,23.594407 Z M11.0184277,21.8215559 C10.8449706,21.8215559 10.7114086,21.8711004 10.6177418,21.9706567 C10.524075,22.0702131 10.4776752,22.2118355 10.4776752,22.3959914 C10.4776752,22.5717341 10.524075,22.7100848 10.6177418,22.8110433 C10.7114086,22.9120019 10.8449706,22.9620138 11.0184277,22.9620138 C11.186681,22.9620138 11.3176411,22.9120019 11.4108743,22.8110433 C11.5045412,22.7100848 11.5513746,22.5717341 11.5513746,22.3959914 C11.5513746,22.2118355 11.5045412,22.0702131 11.4108743,21.9706567 C11.3176411,21.8711004 11.186681,21.8215559 11.0184277,21.8215559 L11.0184277,21.8215559 Z M10.5344824,28.5353006 L11.4906646,28.5353006 L11.4906646,23.681811 L10.5344824,23.681811 L10.5344824,28.5353006 Z M7.58614561,23.594407 C7.27695835,23.594407 7.0063653,23.6584409 6.77436645,23.7874435 C6.5423676,23.9159788 6.36153859,24.0973303 6.23144578,24.331498 L6.17030215,24.331498 C6.20282536,24.0155351 6.21930378,23.7182682 6.21930378,23.4401648 L6.21930378,21.7070427 L5.2631216,21.7070427 L5.2631216,28.5353006 L6.21930378,28.5353006 L6.21930378,26.126317 C6.21930378,25.5177612 6.31340425,25.0840133 6.50203883,24.8246059 C6.69023977,24.5661332 6.98511681,24.4366632 7.38666996,24.4366632 C7.69021986,24.4366632 7.91181129,24.5292086 8.05144424,24.7128971 C8.19107719,24.8975204 8.26089367,25.1765586 8.26089367,25.5514141 L8.26089367,28.5353006 L9.22097863,28.5353006 L9.22097863,25.3709974 C9.22097863,24.1866038 8.67588974,23.594407 7.58614561,23.594407 L7.58614561,23.594407 Z M-4.08562073e-14,23.0190367 L1.7493147,23.0190367 L1.7493147,28.5353006 L2.72110802,28.5353006 L2.72110802,23.0190367 L4.47042272,23.0190367 L4.47042272,22.1197576 L-4.08562073e-14,22.1197576 L-4.08562073e-14,23.0190367 Z" id="Fill-1" fill="#294E9B"></path>
        </g>
    </g>
</svg>