<?xml version="1.0" encoding="utf-8"?>
<!-- Generator: Adobe Illustrator 16.0.0, SVG Export Plug-In . SVG Version: 6.00 Build 0)  -->
<!DOCTYPE svg PUBLIC "-//W3C//DTD SVG 1.1//EN" "http://www.w3.org/Graphics/SVG/1.1/DTD/svg11.dtd">
<svg version="1.1" id="Layer_1" xmlns="http://www.w3.org/2000/svg" xmlns:xlink="http://www.w3.org/1999/xlink" x="0px" y="0px"
	 width="20px" height="20px" viewBox="0 0 20 20" enable-background="new 0 0 20 20" xml:space="preserve">
<path fill="#FFFFFF" d="M16,0H4C1.791,0,0,1.791,0,4v12c0,2.209,1.791,4,4,4h5v-6H7v-3h2V8.987c0-2.19,1.706-3.382,3.66-3.382
	c0.936,0,1.34,0.07,2.34,0.101V8h-1.645C12.293,8,12,8.501,12,9.241V11h2.486l-0.329,3H12v6h4c2.209,0,4-1.791,4-4V4
	C20,1.791,18.209,0,16,0z"/>
</svg>
