<?xml version="1.0" encoding="utf-8"?>
<!-- Generator: Adobe Illustrator 16.0.0, SVG Export Plug-In . SVG Version: 6.00 Build 0)  -->
<!DOCTYPE svg PUBLIC "-//W3C//DTD SVG 1.1//EN" "http://www.w3.org/Graphics/SVG/1.1/DTD/svg11.dtd">
<svg version="1.1" id="Layer_1" xmlns="http://www.w3.org/2000/svg" xmlns:xlink="http://www.w3.org/1999/xlink" x="0px" y="0px"
	 width="25px" height="25px" viewBox="0 0 25 25" enable-background="new 0 0 25 25" xml:space="preserve">
<g id="_x31_3">
	<g>
		<path fill="#FFFFFF" d="M19.916,0.123H5.085c-2.742,0-4.962,2.08-4.962,4.82v14.832c0,2.748,2.22,5.102,4.962,5.102h14.831
			c2.748,0,4.961-2.354,4.961-5.102V4.943C24.877,2.203,22.664,0.123,19.916,0.123z M12.5,21.431c-5.011,0-9.072-4.059-9.072-9.071
			c0-5.012,4.061-9.072,9.072-9.072s9.071,4.061,9.071,9.072S17.512,21.431,12.5,21.431z M21.4,4.975
			c-0.811,0-1.459-0.65-1.459-1.459c0-0.803,0.648-1.459,1.459-1.459c0.805,0,1.46,0.656,1.46,1.459
			C22.86,4.324,22.205,4.975,21.4,4.975z"/>
		<circle fill="#FFFFFF" cx="12.5" cy="12.359" r="7.189"/>
	</g>
</g>
<g id="Layer_1_1_">
</g>
</svg>
