<?xml version="1.0" encoding="utf-8"?>
<!-- Generator: Adobe Illustrator 16.0.0, SVG Export Plug-In . SVG Version: 6.00 Build 0)  -->
<!DOCTYPE svg PUBLIC "-//W3C//DTD SVG 1.1//EN" "http://www.w3.org/Graphics/SVG/1.1/DTD/svg11.dtd">
<svg version="1.1" id="Layer_1" xmlns="http://www.w3.org/2000/svg" xmlns:xlink="http://www.w3.org/1999/xlink" x="0px" y="0px"
	 width="157.539px" height="200.631px" viewBox="0 0 157.539 200.631" enable-background="new 0 0 157.539 200.631"
	 xml:space="preserve">
<g>
	<g>
		<path fill="none" stroke="#0070BC" stroke-miterlimit="10" d="M27.631,84.727V15.683c0-2.218,1.798-4.016,4.017-4.016h30.845"/>
		<line fill="none" stroke="#007599" stroke-miterlimit="10" x1="27.631" y1="123.78" x2="27.631" y2="96.885"/>
		<line fill="none" stroke="#0070BC" stroke-miterlimit="10" x1="98.897" y1="162.522" x2="52.407" y2="162.522"/>
		<path fill="none" stroke="#0070BC" stroke-miterlimit="10" d="M139.882,115.986v42.521c0,2.218-1.799,4.016-4.017,4.016h-0.253"/>
		<path fill="none" stroke="#0070BC" stroke-miterlimit="10" d="M104.718,11.667h31.147c2.218,0,4.017,1.798,4.017,4.016v56.445"/>
		<path fill="none" stroke="#0070BC" stroke-miterlimit="10" d="M35.131,82.194v-55.45c0-4.32,3.502-7.823,7.823-7.823h13.98"/>
		<line fill="none" stroke="#0070BC" stroke-miterlimit="10" x1="98.763" y1="155.269" x2="52.466" y2="155.269"/>
		<path fill="none" stroke="#0070BC" stroke-miterlimit="10" d="M110.075,18.921h14.852c4.321,0,7.824,3.503,7.824,7.823v41.558"/>
		<path fill="none" stroke="#0070BC" stroke-miterlimit="10" d="M92.332,8.675c0,0,0.146-6.425-6.774-7.953
			c-1.334-0.294-2.72-0.298-4.054-0.001C74.603,2.25,74.74,8.677,74.74,8.677C57.2,7.734,56.872,21.543,56.872,21.543h53.338
			C110.21,21.543,109.872,7.732,92.332,8.675z M83.757,11.483c-2.105,0-3.813-1.707-3.813-3.812c0-2.105,1.707-3.811,3.813-3.811
			c2.104,0,3.811,1.706,3.811,3.811C87.567,9.776,85.861,11.483,83.757,11.483z"/>
		<line fill="none" stroke="#F24839" stroke-miterlimit="10" x1="44.943" y1="35.052" x2="122.139" y2="35.052"/>
		<line fill="none" stroke="#F24839" stroke-miterlimit="10" x1="44.943" y1="45.503" x2="122.139" y2="45.503"/>
		<line fill="none" stroke="#007599" stroke-miterlimit="10" x1="101.136" y1="55.955" x2="122.139" y2="55.955"/>
		<line fill="none" stroke="#F24839" stroke-miterlimit="10" x1="44.943" y1="55.955" x2="84.849" y2="55.955"/>
		<line fill="none" stroke="#F24839" stroke-miterlimit="10" x1="44.943" y1="66.406" x2="98.023" y2="66.406"/>
		<line fill="none" stroke="#F24839" stroke-miterlimit="10" x1="44.943" y1="76.858" x2="101.734" y2="76.858"/>
		<line fill="none" stroke="#F24839" stroke-miterlimit="10" x1="45.871" y1="87.309" x2="101.734" y2="87.309"/>
		<line fill="none" stroke="#F24839" stroke-miterlimit="10" x1="47.724" y1="97.76" x2="100.807" y2="97.76"/>
		<line fill="none" stroke="#F24839" stroke-miterlimit="10" x1="47.724" y1="108.212" x2="100.807" y2="108.212"/>
		<line fill="none" stroke="#F24839" stroke-miterlimit="10" x1="47.724" y1="118.665" x2="102.662" y2="118.665"/>
		<line fill="none" stroke="#F24839" stroke-miterlimit="10" x1="47.727" y1="129.116" x2="104.519" y2="129.116"/>
		<line fill="none" stroke="#F24839" stroke-miterlimit="10" x1="46.799" y1="139.567" x2="97.096" y2="139.567"/>
	</g>
	<g>
		<path fill="none" stroke="#0070BC" stroke-miterlimit="10" d="M13.261,140.882l-9.023-9.643c0,0-4.79-4.612-3.524-10.418
			L5.845,98.27c0,0,0.492-1.723,1.534-3.558c1.084-1.911,2.824-3.366,4.892-4.11l27.298-9.828L32.87,95.066l-13.845,4.243
			c0,0-1.861,0.595-1.638,4.839l-0.266,11.241c-0.093,3.948,2.328,7.551,6.051,8.867c0.672,0.237,1.368,0.394,2.069,0.428"/>
		<polygon fill="none" stroke="#0070BC" stroke-miterlimit="10" points="50.17,200.131 14.199,200.131 14.165,169.387 
			30.873,169.371 33.369,169.369 50.09,169.349 50.157,169.349 		"/>
		<path fill="none" stroke="#0070BC" stroke-miterlimit="10" d="M20.251,151.174v-1.153c0-0.636-0.229-1.251-0.644-1.732
			l-6.378-7.377"/>
		<path fill="none" stroke="#0070BC" stroke-miterlimit="10" d="M25.198,124.711c0.234-0.306,3.554,2.054,7.499-7.565
			c0.581-1.417,2.464-7.183,2.193-12.544l-0.333-10.996c0,0,0.05-3.699,3.468-5.313c0.158-0.074,0.324-0.132,0.493-0.174
			c0.981-0.237,4.433-0.846,7.083,1.58c0.297,0.271,0.528,0.607,0.674,0.982c0.33,0.845,0.799,2.655,0.807,6.146l1.172,29.902
			c0,0-0.046,7.548-1.55,12.659c-0.022,0.078-0.042,0.157-0.058,0.236c-0.154,0.784-1.056,5.247-1.981,7.323
			c-0.15,0.337-0.229,0.703-0.231,1.073l-0.009,3.174"/>
		<path fill="none" stroke="#0070BC" stroke-miterlimit="10" d="M44.066,97.358l-6.08-0.117c-0.519-0.01-0.929-0.445-0.909-0.964
			l0.132-3.323c0,0,0.264-2.632,3.599-2.984c0,0,2.806-0.191,4.015,2.287c0,0,0.412,1.028,0.202,3.121l-0.015,1.065
			C45.004,96.958,44.579,97.367,44.066,97.358z"/>
		<path fill="none" stroke="#0070BC" stroke-miterlimit="10" d="M15.832,169.37l32.66-0.035c2.109-0.001,3.832-1.729,3.83-3.837
			l-0.011-10.216c-0.003-2.108-1.729-3.832-3.838-3.829l-32.66,0.035c-2.108,0.001-3.832,1.729-3.83,3.837l0.011,10.214
			C11.996,167.649,13.723,169.373,15.832,169.37z"/>
	</g>
	<g>
		<polygon fill="none" stroke="#0070BC" stroke-miterlimit="10" points="99.116,179.725 135.088,179.725 135.122,148.982 
			118.413,148.965 115.917,148.963 99.196,148.944 99.13,148.944 		"/>
		<path fill="none" stroke="#0070BC" stroke-miterlimit="10" d="M131.899,82.815l0.267,12.169c0.093,3.948-2.328,7.551-6.052,8.867
			c-0.672,0.237-1.367,0.394-2.068,0.428"/>
		<path fill="none" stroke="#0070BC" stroke-miterlimit="10" d="M129.035,130.769v-1.153c0-0.636,0.229-1.251,0.645-1.732
			l6.46-7.528l-0.113,0.122l9.023-9.643c0,0,4.79-4.612,3.524-10.418l-5.131-22.552c0,0-0.493-1.722-1.535-3.558
			c-1.084-1.911-2.825-3.367-4.892-4.11l-26.644-9.828"/>
		<path fill="none" stroke="#0070BC" stroke-miterlimit="10" d="M124.089,104.306c-0.234-0.306-3.555,2.053-7.498-7.566
			c-0.581-1.416-2.465-7.182-2.193-12.544l0.332-10.995c0,0-0.05-3.7-3.468-5.314c-0.157-0.074-0.323-0.132-0.493-0.174
			c-0.98-0.238-4.433-0.845-7.083,1.58c-0.297,0.272-0.527,0.608-0.673,0.983c-0.331,0.844-0.799,2.654-0.808,6.146l-1.172,29.902
			c0,0,0.046,7.547,1.55,12.659c0.023,0.077,0.042,0.157,0.059,0.236c0.154,0.783,1.056,5.247,1.98,7.323
			c0.15,0.337,0.23,0.703,0.231,1.072l0.009,3.175"/>
		<path fill="none" stroke="#0070BC" stroke-miterlimit="10" d="M105.221,76.953l6.08-0.117c0.519-0.01,0.929-0.445,0.908-0.963
			l-0.132-3.324c0,0-0.264-2.632-3.6-2.984c0,0-2.805-0.191-4.015,2.287c0,0-0.411,1.028-0.202,3.122l0.016,1.065
			C104.282,76.553,104.708,76.961,105.221,76.953z"/>
		<path fill="none" stroke="#0070BC" stroke-miterlimit="10" d="M133.455,148.964l-32.659-0.035
			c-2.109-0.002-3.833-1.729-3.83-3.837l0.01-10.216c0.003-2.108,1.73-3.832,3.839-3.829l32.659,0.035
			c2.108,0.001,3.832,1.729,3.83,3.837l-0.012,10.214C137.29,147.244,135.563,148.966,133.455,148.964z"/>
	</g>
	<g>
		<path fill="none" stroke="#0070BC" stroke-miterlimit="10" d="M95.478,53.194c0,0-13.324-1.373-13.624-0.82
			s8.955,10.647,8.955,10.647l3.887-3.705L95.478,53.194z"/>
		<path fill="#0070BC" d="M87.126,52.45c0,0-5.252-0.443-5.363-0.138c-0.14,0.38,3.247,4.203,3.247,4.203L87.126,52.45z"/>
		<line fill="none" stroke="#0070BC" stroke-miterlimit="10" x1="103.473" y1="69.067" x2="90.809" y2="63.021"/>
		<polyline fill="none" stroke="#0070BC" stroke-miterlimit="10" points="95.465,53.188 152.871,80.841 148.25,90.384 
			115.163,74.623 		"/>
		<path fill="none" stroke="#0070BC" stroke-miterlimit="10" d="M148.177,90.334l2.836,1.35c1.281,0.61,2.813,0.066,3.424-1.214
			l2.352-4.935c0.607-1.276,0.069-2.805-1.205-3.419l-2.875-1.385L148.177,90.334z"/>
	</g>
</g>
</svg>
