<?xml version="1.0" encoding="utf-8"?>
<!-- Generator: Adobe Illustrator 16.0.0, SVG Export Plug-In . SVG Version: 6.00 Build 0)  -->
<!DOCTYPE svg PUBLIC "-//W3C//DTD SVG 1.1//EN" "http://www.w3.org/Graphics/SVG/1.1/DTD/svg11.dtd">
<svg version="1.1" id="Layer_1" xmlns="http://www.w3.org/2000/svg" xmlns:xlink="http://www.w3.org/1999/xlink" x="0px" y="0px"
	 width="222.238px" height="150.203px" viewBox="0 0 222.238 150.203" enable-background="new 0 0 222.238 150.203"
	 xml:space="preserve">
<g>
	<path fill="none" stroke="#0070BC" stroke-miterlimit="10" d="M173.5,121v7.866c0,3.471-2.918,6.634-6.388,6.634H6.98
		c-3.47,0-6.48-3.163-6.48-6.634V7.381C0.5,3.912,3.511,0.5,6.98,0.5h160.132c3.47,0,6.388,3.412,6.388,6.881V87"/>
	<path fill="none" stroke="#0070BC" stroke-miterlimit="10" d="M176.455,110.905c0,0,3.898-5.746,1.489-11.223l-11.241-7.5
		c0,0,6.982-7.566,12.69-5.086c2.692,1.168,5.445,0.061,8.054,0.25c2.706,0.195,4.559,1.641,6.055,1.283
		c3.559-0.848,9.74-0.209,11.543,6.484c0.852,3.16,3.309,22.037,9.902,26.252c0,0-7.519,13.414-14.338,13.68
		c-1.93-2.563-12.46-5.727-20.764-10.121c-10.477-5.543-16.57-12.033-16.39-17.055C163.668,101.929,176.455,110.905,176.455,110.905
		z"/>
	<path fill="none" stroke="#0070BC" stroke-miterlimit="10" d="M199.82,137.491c0,0,10.525-5.828,16.148-20.572l3.215,1.719
		l2.516,30.432l-7.496,0.619L199.82,137.491z"/>
	<g>
		<g>
			<rect x="0.5" y="5.5" fill="none" stroke="#0070BC" stroke-miterlimit="10" width="173" height="10"/>
			<g>
				<path fill="none" stroke="#0070BC" stroke-miterlimit="10" d="M11.624,9.5H7.863l0.692-0.729
					c0.306-0.385,0.241-0.873-0.145-1.177C8.026,7.289,7.466,7.391,7.162,7.776l-1.834,2.335c-0.145,0.182-0.207,0.415-0.188,0.638
					c-0.013,0.207,0.043,0.426,0.182,0.604l1.738,2.24c0.175,0.226,0.438,0.347,0.703,0.347c0.19,0,0.382-0.062,0.545-0.187
					c0.388-0.303,0.458-0.896,0.156-1.282L7.739,11.5h3.885c0.491,0,0.89-0.51,0.89-1S12.115,9.5,11.624,9.5z"/>
				<path fill="none" stroke="#0070BC" stroke-miterlimit="10" d="M22.423,10.154l-1.704-2.317
					c-0.291-0.396-0.849-0.479-1.243-0.188c-0.396,0.289-0.481,0.702-0.19,1.098L19.947,9.5h-3.579c-0.492,0-0.89,0.51-0.89,1
					s0.397,1,0.89,1h3.623l-0.726,0.971c-0.301,0.389-0.231,0.963,0.156,1.265c0.163,0.125,0.355,0.195,0.545,0.195
					c0.266,0,0.529-0.114,0.703-0.338l1.738-2.237c0.137-0.177,0.193-0.389,0.182-0.596C22.609,10.547,22.553,10.332,22.423,10.154z
					"/>
			</g>
			<rect x="29.5" y="8.5" fill="none" stroke="#0070BC" stroke-miterlimit="10" width="135" height="5"/>
		</g>
		<g>
			<g>
				<polygon fill="none" stroke="#0070BC" stroke-miterlimit="10" points="22.217,91.292 8.198,77.276 22.217,63.259 25.991,67.034 
					15.75,77.276 25.991,87.517 				"/>
			</g>
			<g>
				<polyline fill="none" stroke="#0070BC" stroke-miterlimit="10" points="153.566,82.437 158.727,77.276 148.485,67.034 
					152.262,63.259 166.279,77.276 157.845,85.71 				"/>
			</g>
		</g>
		<polyline fill="none" stroke="#0070BC" stroke-miterlimit="10" points="103,42.5 35.5,42.5 35.5,37.5 116,37.5 		"/>
		<rect x="35.5" y="81.5" fill="none" stroke="#0070BC" stroke-miterlimit="10" width="54" height="5"/>
		<g>
			<rect x="35.5" y="49.5" fill="none" stroke="#0070BC" stroke-miterlimit="10" width="54" height="6"/>
			<rect x="35.5" y="62.5" fill="none" stroke="#0070BC" stroke-miterlimit="10" width="51" height="5"/>
		</g>
		<rect x="35.5" y="124.5" fill="none" stroke="#0070BC" stroke-miterlimit="10" width="54" height="4"/>
		<g>
			<rect x="35.5" y="97.5" fill="none" stroke="#0070BC" stroke-miterlimit="10" width="48" height="4"/>
			<rect x="35.5" y="109.5" fill="none" stroke="#0070BC" stroke-miterlimit="10" width="51" height="5"/>
		</g>
		<g>
			<defs>
				<rect id="XMLID_5_" x="98.5" y="54.5" width="40" height="25"/>
			</defs>
			<clipPath id="XMLID_3_">
				<use xlink:href="#XMLID_5_"  overflow="visible"/>
			</clipPath>
			<use xlink:href="#XMLID_5_"  overflow="visible" fill="none" stroke="#F24839" stroke-miterlimit="10"/>
		</g>
		<rect id="XMLID_1_" x="98.5" y="103.5" fill="none" stroke="#0070BC" stroke-miterlimit="10" width="40" height="25"/>
		<path fill="none" stroke="#F24839" stroke-miterlimit="10" d="M119.712,67.595c-2.946-0.037-5.317-2.463-5.315-5.486
			c0.004-3.037,2.41-5.493,5.33-5.477c2.992,0.016,5.338,2.495,5.323,5.502C125.033,65.245,122.575,67.579,119.712,67.595z"/>
		<path fill="none" stroke="#F24839" stroke-miterlimit="10" d="M129.427,73.858c-0.129-0.916-0.364-1.799-0.73-2.645
			c-0.491-1.131-1.17-2.125-2.028-2.99c-0.618-0.621-1.307-1.143-2.065-1.57c-0.096-0.053-0.154-0.055-0.236,0.023
			c-0.661,0.658-1.43,1.133-2.302,1.432c-0.764,0.262-1.547,0.354-2.341,0.297l0,0c-0.005,0-0.01,0-0.015,0
			c-0.004,0-0.008,0-0.013,0l0,0c-0.795,0.057-1.578-0.035-2.342-0.297c-0.872-0.299-1.641-0.773-2.301-1.432
			c-0.082-0.078-0.142-0.076-0.236-0.023c-0.758,0.428-1.448,0.949-2.066,1.57c-0.858,0.865-1.538,1.859-2.027,2.99
			c-0.367,0.846-0.603,1.729-0.732,2.645c-0.035,0.244,0.032,0.713,0.212,0.885c0.188,0.176,0.413,0.465,0.65,0.465
			c2.811,0,5.624,0,8.436,0c0.136,0,0.271,0,0.407,0c0.009,0,0.018,0,0.027,0c0.136,0,0.271,0,0.407,0c2.812,0,5.624,0,8.435,0
			c0.236,0,0.463-0.289,0.651-0.465C129.396,74.571,129.463,74.103,129.427,73.858z"/>
	</g>
	<line id="XMLID_8_" fill="none" stroke="#007599" stroke-miterlimit="10" x1="153.119" y1="83.118" x2="168.612" y2="93.456"/>
	<line id="XMLID_6_" fill="none" stroke="#0070BC" stroke-miterlimit="10" x1="170.622" y1="107.271" x2="147.359" y2="91.749"/>
	<g>
		<path fill="none" stroke="#0070BC" stroke-miterlimit="10" d="M147.076,73.272c-0.713,6.264-4.987,11.639-9.283,16.131
			c-0.402,0.42-0.837,0.801-1.293,1.137c0.086,0.072,0.177,0.139,0.272,0.203l3.205,2.139c1.499,1,4.062,1.053,5.524-0.113
			c3.755-3,6.516-7.139,7.846-11.758c0.517-1.797-0.518-4.145-2.016-5.145c-1.281-0.855-1.923-1.283-3.206-2.139
			C147.797,73.507,147.44,73.358,147.076,73.272z"/>
	</g>
	<circle fill="none" stroke="#0070BC" stroke-width="2" stroke-miterlimit="10" cx="118.674" cy="66.37" r="29.202"/>
</g>
</svg>
