<?xml version="1.0" encoding="utf-8"?>
<!-- Generator: Adobe Illustrator 16.0.0, SVG Export Plug-In . SVG Version: 6.00 Build 0)  -->
<!DOCTYPE svg PUBLIC "-//W3C//DTD SVG 1.1//EN" "http://www.w3.org/Graphics/SVG/1.1/DTD/svg11.dtd">
<svg version="1.1" id="Layer_1" xmlns="http://www.w3.org/2000/svg" xmlns:xlink="http://www.w3.org/1999/xlink" x="0px" y="0px"
	 width="168.74px" height="142.667px" viewBox="0 0 168.74 142.667" enable-background="new 0 0 168.74 142.667"
	 xml:space="preserve">
<g>
	<path fill="none" stroke="#0070BC" stroke-miterlimit="10" d="M59.165,18.057V7.773c0-4.011,3.264-7.273,7.274-7.273h38.034
		c4.013,0,7.274,3.263,7.274,7.273v10.502 M104.149,18.275V8.099H66.765v10.177"/>
	<g>
		<path fill="none" stroke="#0070BC" stroke-miterlimit="10" d="M30.258,139.634c0,1.398-1.135,2.533-2.533,2.533h-8.866
			c-1.399,0-2.532-1.135-2.532-2.533l0,0c0-1.398,1.133-2.533,2.532-2.533h8.866C29.123,137.101,30.258,138.236,30.258,139.634
			L30.258,139.634z"/>
		<path fill="none" stroke="#0070BC" stroke-miterlimit="10" d="M152.415,139.634c0,1.398-1.136,2.533-2.533,2.533h-8.866
			c-1.399,0-2.532-1.135-2.532-2.533l0,0c0-1.398,1.133-2.533,2.532-2.533h8.866C151.279,137.101,152.415,138.236,152.415,139.634
			L152.415,139.634z"/>
	</g>
	<path fill="none" stroke="#0070BC" stroke-miterlimit="10" d="M168.24,132.136c0,2.518-2.041,4.561-4.559,4.561H5.06
		c-2.518,0-4.56-2.043-4.56-4.561V23.283c0-2.517,2.042-4.559,4.56-4.559h158.622c2.518,0,4.559,2.042,4.559,4.559V132.136z"/>
	<g>
		<path fill="#F24839" d="M93.254,69.339c-0.664,6.773-6.05,11.092-14.545,11.359c5.178,5.387,10.828,12.158,16.41,19.004h-6.381
			C83.56,93.457,78.709,87.677,72.46,81.031v-4.117h3.65c7.178,0,11.03-2.992,11.499-7.574H72.458v-3.32h14.945
			c-0.927-3.861-4.443-5.787-10.226-5.787h-4.72v-4.32h27.908v3.33h-10.9c1.926,1.52,3.326,3.719,3.728,6.777h7.242v3.32H93.254z"/>
	</g>
	<circle fill="none" stroke="#0070BC" stroke-miterlimit="10" cx="86.448" cy="77.806" r="37.141"/>
</g>
</svg>
